<?xml version="1.0" encoding="UTF-8" standalone="no"?>
<svg
   xmlns:dc="http://purl.org/dc/elements/1.1/"
   xmlns:cc="http://creativecommons.org/ns#"
   xmlns:rdf="http://www.w3.org/1999/02/22-rdf-syntax-ns#"
   xmlns:svg="http://www.w3.org/2000/svg"
   xmlns="http://www.w3.org/2000/svg"
   xmlns:sodipodi="http://sodipodi.sourceforge.net/DTD/sodipodi-0.dtd"
   xmlns:inkscape="http://www.inkscape.org/namespaces/inkscape"
   height="512pt"
   viewBox="-52 0 512 512.00099"
   width="512pt"
   version="1.1"
   id="svg907"
   sodipodi:docname="a1455014_08.svg"
   inkscape:version="1.0 (4035a4fb49, 2020-05-01)">
  <metadata
     id="metadata913">
    <rdf:RDF>
      <cc:Work
         rdf:about="">
        <dc:format>image/svg+xml</dc:format>
        <dc:type
           rdf:resource="http://purl.org/dc/dcmitype/StillImage" />
        <dc:title />
      </cc:Work>
    </rdf:RDF>
  </metadata>
  <defs
     id="defs911" />
  <sodipodi:namedview
     inkscape:document-rotation="0"
     pagecolor="#ffffff"
     bordercolor="#666666"
     borderopacity="1"
     objecttolerance="10"
     gridtolerance="10"
     guidetolerance="10"
     inkscape:pageopacity="0"
     inkscape:pageshadow="2"
     inkscape:window-width="1716"
     inkscape:window-height="925"
     id="namedview909"
     showgrid="false"
     inkscape:zoom="0.73828125"
     inkscape:cx="109.79852"
     inkscape:cy="524.20298"
     inkscape:window-x="2056"
     inkscape:window-y="199"
     inkscape:window-maximized="0"
     inkscape:current-layer="g897" />
  <g
     fill-rule="evenodd"
     id="g897">
    <path
       d="m203.277344 121.417969c29.4375 5.023437 60.785156-3.824219 83.511718-26.546875 22.722657-22.726563 31.574219-54.074219 26.546876-83.511719-29.4375-5.027344-60.785157 3.820313-83.511719 26.546875-22.722657 22.726562-31.574219 54.070312-26.546875 83.511719zm0 0"
       fill="#ffba4a"
       id="path891"
       style="fill:#6db82a;fill-opacity:1" />
    <path
       d="m217.46875 166.046875c-4.421875-30.878906-27.871094-73.617187-38.507812-87.875-11.519532-15.4375-41.375-3.734375-22.523438 24.234375 6.132812 9.097656 18.910156 37.808594 25.503906 60.8125 2.859375 9.964844 4.558594 18.863281 4.050782 24.628906 11.671874-4.328125 21.582031-12.210937 31.828124-18.980468-.097656-.929688-.214843-1.867188-.351562-2.820313zm0 0"
       fill="#ff8244"
       id="path893" />
    <path
       style="fill:#a757a8;fill-opacity:1"
       d="m217.820312 168.867188c-10.246093 6.769531-20.15625 14.652343-31.828124 18.976562.507812-5.761719-1.191407-14.660156-4.050782-24.625-19.582031-7.398438-39.429687-20.402344-70.765625-14.433594-50.636719 9.648438-86.902343 51.453125-97.285156 100.714844-11.855469 56.226562 4.925781 116.273438 29.367187 166.050781 10.015626 20.394531 30.574219 48.621094 45.882813 64.898438 11.066406 11.765625 30.359375 24.289062 47.324219 21.03125 19.953125-3.835938 40.101562-17.941407 67.585937-17.941407 27.480469 0 47.628907 14.105469 67.585938 17.941407 16.960937 3.257812 36.257812-9.265625 47.324219-21.03125 15.308593-16.277344 35.863281-44.503907 45.878906-64.898438 24.445312-49.777343 41.222656-109.824219 29.371094-166.050781-10.386719-49.261719-46.652344-91.066406-97.289063-100.714844-26.808594-5.109375-45.207031 3.671875-62.230469 10.949219-1.203125.515625-2.402344 1.023437-3.597656 1.519531-4.585938 2.109375-8.960938 4.761719-13.273438 7.613282zm0 0"
       fill="#ffba4a"
       id="path895" />
  </g>
  <path
     d="m15.113281 239.363281c1.378907.648438 2.824219.953125 4.253907.953125 3.75 0 7.347656-2.121094 9.054687-5.738281l.183594-.390625c2.351562-4.996094.207031-10.949219-4.789063-13.304688-4.996094-2.351562-10.949218-.210937-13.304687 4.785157l-.1875.390625c-2.351563 4.996094-.207031 10.953125 4.789062 13.304687zm0 0"
     id="path899" />
  <path
     d="m403.996094 247.4375c-11.800782-55.964844-53.09375-98.546875-105.199219-108.476562-28.496094-5.429688-49.023437 3.402343-65.515625 10.5-2.820312 1.210937-5.5625 2.386718-8.257812 3.464843-1.648438-6.609375-3.847657-13.429687-6.398438-20.222656 29.167969-.015625 58.320312-12.398437 79.042969-34.273437 23.421875-24.726563 32.6875-57.269532 25.421875-89.285157-.898438-3.945312-4.082032-6.964843-8.070313-7.644531-33.660156-5.746094-68.152343 5.21875-92.265625 29.332031-14.503906 14.503907-24.242187 32.757813-28.457031 52.328125-2.714844-4.410156-5.21875-8.152344-7.324219-10.96875-8.660156-11.609375-25.097656-14.398437-36.636718-6.210937-9.519532 6.757812-15.808594 21.8125-2.191407 42.011719 4.25 6.308593 11.316407 21.6875 17.28125 37.535156-14.804687-5.894532-32.792969-11.011719-56.121093-6.566406-31.046876 5.917968-59.050782 23.683593-78.847657 50.023437-3.316406 4.414063-2.429687 10.683594 1.988281 14 1.800782 1.355469 3.90625 2.007813 6 2.007813 3.035157 0 6.035157-1.378907 8-3.992188 17.042969-22.675781 40.074219-37.335938 66.601563-42.390625 22.476563-4.28125 38.4375 2.582031 53.871094 9.226563 2.195312.941406 4.4375 1.902343 6.695312 2.832031 1.058594 4.097656 1.832031 7.820312 2.210938 10.9375-5.976563.605469-12.785157-.113281-21.105469-2.660157-5.28125-1.621093-10.871094 1.351563-12.488281 6.628907-1.621094 5.28125 1.351562 10.875 6.628906 12.492187 8.515625 2.609375 16.074219 3.714844 22.875 3.714844 20.773437 0 34.515625-10.320312 47-19.699219 6.324219-4.75 12.863281-9.664062 20.300781-13.328125.71875-.308594 1.433594-.617187 2.148438-.921875 15.433594-6.640625 31.398437-13.503906 53.867187-9.222656 44.160157 8.414063 79.242188 44.902344 89.371094 92.953125 12.363281 58.648438-8.703125 119.152344-28.558594 159.582031-9.953125 20.269531-30.285156 47.671875-44.1875 62.453125-9.742187 10.359375-25.847656 20.433594-38.152343 18.0625-6.632813-1.273437-13.742188-4.007812-21.273438-6.902344-13.683594-5.257812-29.195312-11.21875-48.203125-11.21875-19.003906 0-34.515625 5.960938-48.203125 11.21875-7.527344 2.894532-14.636719 5.628907-21.269531 6.902344-1.230469.234375-2.5.347656-3.800781.347656-11.671876 0-25.585938-9.085937-34.351563-18.410156-13.902344-14.78125-34.234375-42.183594-44.191406-62.453125-18.871094-38.433593-39.363281-96.164062-29.8125-152.949219.917969-5.445312-2.757813-10.605468-8.203125-11.523437-5.449219-.917969-10.605469 2.757813-11.519532 8.203125-10.433593 62.035156 11.417969 124.015625 31.585938 165.085938 11.191406 22.785156 32.863281 51.703124 47.574219 67.339843 11.308593 12.023438 30.15625 24.703125 49.007812 24.699219 2.5 0 5.003907-.222656 7.488281-.699219 8.375-1.609375 16.289063-4.652343 24.667969-7.871093 12.652344-4.863282 25.738281-9.890626 41.03125-9.890626s28.375 5.027344 41.027344 9.890626c8.378906 3.21875 16.296875 6.261718 24.671875 7.871093 2.484375.476563 4.984375.699219 7.484375.699219 18.855469 0 37.699219-12.675781 49.007813-24.699219 14.710937-15.636719 36.382812-44.554687 47.574218-67.339843 21.242188-43.253907 43.71875-108.296876 30.179688-172.523438zm-167.101563-202.460938c17.902344-17.902343 42.875-26.859374 67.910157-24.644531 3.132812 23.179688-4.570313 46.304688-21.65625 64.34375-18.5 19.523438-45.113282 29.808594-70.9375 27.785157-2.070313-24.898438 6.882812-49.683594 24.683593-67.484376zm-42.050781 129.554688c-.734375-4.003906-1.773438-8.34375-3.03125-12.859375-.125-.796875-.34375-1.566406-.652344-2.304687-7.074218-24.339844-19.984375-52.988282-26.433594-62.550782-4.574218-6.789062-5.679687-12.488281-2.816406-14.519531 2.046875-1.453125 6.4375-1.625 9.035156 1.855469 10.746094 14.402344 31.722657 53.78125 36.332032 81.519531-.183594.140625-.371094.28125-.558594.421875-4.152344 3.121094-8.003906 6.007812-11.875 8.4375zm0 0"
     id="path901" />
  <path
     d="m310.039062 434.175781c-4.382812-3.363281-10.660156-2.535156-14.023437 1.847657l-.164063.210937c-3.359374 4.386719-2.53125 10.660156 1.847657 14.023437 1.816406 1.394532 3.957031 2.066407 6.082031 2.066407 3.003906 0 5.972656-1.347657 7.941406-3.914063l.164063-.214844c3.359375-4.382812 2.535156-10.660156-1.847657-14.019531zm0 0"
     id="path903" />
  <path
     d="m315.445312 427.316406c1.789063 1.320313 3.871094 1.960938 5.9375 1.960938 3.0625 0 6.085938-1.402344 8.046876-4.054688 10.960937-14.820312 19.785156-30.710937 26.976562-48.578125 2.0625-5.125-.417969-10.949219-5.539062-13.011719-5.128907-2.0625-10.949219.417969-13.011719 5.542969-6.550781 16.273438-14.566407 30.714844-24.507813 44.152344-3.28125 4.441406-2.34375 10.703125 2.097656 13.988281zm0 0"
     id="path905" />
</svg>
